<?xml version="1.0" encoding="utf-8"?>
<!-- Generator: Adobe Illustrator 16.0.3, SVG Export Plug-In . SVG Version: 6.00 Build 0)  -->
<!DOCTYPE svg PUBLIC "-//W3C//DTD SVG 1.1//EN" "http://www.w3.org/Graphics/SVG/1.1/DTD/svg11.dtd">
<svg version="1.1" id="Layer_1" xmlns="http://www.w3.org/2000/svg" xmlns:xlink="http://www.w3.org/1999/xlink" x="0px" y="0px"
	 width="1400px" height="980px" viewBox="0 0 1400 980" enable-background="new 0 0 1400 980" xml:space="preserve">
<path fill-rule="evenodd" clip-rule="evenodd" fill="#1A1A1A" d="M572.073,164.772c-43.491-30.465-117.117-26.177-151.332-2.33
	c-26.981,0-27.785-0.742-27.785,18.201c0,1.649,0.124,3.256,0.35,4.782h29.373c0.556,0,1.03,0.474,1.03,1.031
	c0,0.577-0.474,1.031-1.03,1.031h-28.96c2.927,12.47,14.408,20.632,36.154,22.054c-0.165-1.215-0.248-2.432-0.248-3.689
	c0-14.696,11.914-26.609,26.589-26.609c6.493,0,12.449,2.329,17.066,6.183h71.172c0.557,0,1.031,0.474,1.031,1.031
	c0,0.577-0.474,1.031-1.031,1.031h-68.967c4.555,4.782,7.337,11.254,7.337,18.365c0,1.34-0.103,2.638-0.288,3.896h98.875
	c-0.185-1.257-0.288-2.556-0.288-3.896c0-0.062,0-0.144,0-0.227h-89.084c-0.577,0-1.031-0.453-1.031-1.031
	c0-0.556,0.454-1.031,1.031-1.031h89.188c1.154-13.624,12.573-24.321,26.506-24.321c14.696,0,26.589,11.914,26.589,26.609
	c0,1.34-0.083,2.638-0.268,3.896c10.533,0,22.55-2.082,22.55-5.585c0-3.071,0-6.143,0-9.193c0-2.782-0.144-5.256-0.639-7.482h-15.83
	c-0.557,0-1.03-0.454-1.03-1.031c0-0.557,0.474-1.031,1.03-1.031h15.232C651.325,174.356,634.918,169.905,572.073,164.772
	L572.073,164.772z M475.073,167.39v-18.922c-4.514,0.516-9.007,1.237-13.418,2.144c-9.399,1.917-19.292,4.885-28.239,9.235
	l6.699,7.007L475.073,167.39z M477.135,148.242v19.189l46.624,0.701v-18.159c-4.39-0.804-8.781-1.402-13.13-1.834
	C499.602,147.066,488.286,147.087,477.135,148.242L477.135,148.242z M525.819,150.365v17.809l35.845,0.536
	c5.338,0.083,9.811,0.495,5.194-2.474C554.573,158.3,540.289,153.229,525.819,150.365L525.819,150.365z M607.731,183.364
	c12.409,0,22.467,10.08,22.467,22.487c0,12.429-10.059,22.488-22.467,22.488c-12.429,0-22.487-10.059-22.487-22.488
	C585.244,193.444,595.302,183.364,607.731,183.364L607.731,183.364z M607.731,193.67c6.72,0,12.161,5.462,12.161,12.182
	c0,6.74-5.441,12.182-12.161,12.182c-6.74,0-12.181-5.442-12.181-12.182C595.55,199.132,600.991,193.67,607.731,193.67
	L607.731,193.67z M456.214,183.364c12.429,0,22.487,10.08,22.487,22.487c0,12.429-10.059,22.488-22.487,22.488
	c-12.408,0-22.467-10.059-22.467-22.488C433.747,193.444,443.806,183.364,456.214,183.364L456.214,183.364z M456.214,193.67
	c6.74,0,12.182,5.462,12.182,12.182c0,6.74-5.441,12.182-12.182,12.182c-6.72,0-12.161-5.442-12.161-12.182
	C444.053,199.132,449.494,193.67,456.214,193.67L456.214,193.67z"/>
<path fill-rule="evenodd" clip-rule="evenodd" fill="#1A1A1A" d="M734.927,203.254c0,15.892,16.592,6.946,22.22,15.892h5.482
	c-0.206-1.34-0.31-2.701-0.31-4.102c0-14.696,11.914-26.609,26.61-26.609c5.236,0,10.121,1.525,14.223,4.122h71.646
	c0.556,0,1.03,0.474,1.03,1.031c0,0.577-0.475,1.031-1.03,1.031h-68.824c5.855,4.884,9.565,12.222,9.565,20.426
	c0,1.401-0.104,2.762-0.31,4.102h98.916c-0.207-1.34-0.31-2.701-0.31-4.102v-0.021h-89.001c-0.557,0-1.031-0.474-1.031-1.031
	c0-0.577,0.475-1.03,1.031-1.03h89.063c1.072-13.728,12.554-24.528,26.528-24.528c14.696,0,26.609,11.913,26.609,26.609
	c0,1.401-0.103,2.762-0.309,4.102h7.296c8.019-3.772,0,0,8.019-3.772c6.039,0,16.51-2.989,16.51-12.223
	c0-2.762-0.371-5.668-1.071-8.533h-21.602c-0.557,0-1.03-0.454-1.03-1.031c0-0.557,0.474-1.031,1.03-1.031h21.045
	c-1.649-5.504-4.391-10.636-7.668-14.016c-5.668-5.875-32.093-15.17-47.222-16.901c-67.132-39.287-129.628-33.928-190.865-7.853
	c-7.688,0,0,0-7.688,0c-7.193,8.533-9.502,21.003-9.09,38.771h21.21c0.577,0,1.03,0.474,1.03,1.031c0,0.577-0.453,1.031-1.03,1.031
	h-21.147C734.556,197.38,734.7,200.245,734.927,203.254L734.927,203.254z M795.01,161.413l5.441-17.252
	c-7.338,1.628-14.716,3.648-22.157,6.039l10.718,10.718L795.01,161.413z M802.76,143.666l-5.626,17.912l57.177,4.74l0.062-26.527
	C837.326,138.657,820.156,140.018,802.76,143.666L802.76,143.666z M856.434,139.935l-0.062,26.548l47.428,3.937l6.203-17.727
	C892.113,145.5,874.324,141.337,856.434,139.935L856.434,139.935z M911.9,153.477l-5.978,17.128l24.61,2.041
	c4.142,0.289,12.511-3.277,8.39-5.668C929.873,161.681,920.887,157.208,911.9,153.477L911.9,153.477z M940.427,192.557
	c12.429,0,22.487,10.079,22.487,22.487c0,12.429-10.059,22.488-22.487,22.488c-12.408,0-22.467-10.059-22.467-22.488
	C917.96,202.636,928.019,192.557,940.427,192.557L940.427,192.557z M940.427,202.863c6.739,0,12.182,5.462,12.182,12.181
	c0,6.719-5.442,12.182-12.182,12.182c-6.72,0-12.161-5.462-12.161-12.182C928.266,208.326,933.707,202.863,940.427,202.863
	L940.427,202.863z M788.93,192.557c12.408,0,22.488,10.079,22.488,22.487c0,12.429-10.08,22.488-22.488,22.488
	s-22.487-10.059-22.487-22.488C766.442,202.636,776.521,192.557,788.93,192.557L788.93,192.557z M788.93,202.863
	c6.72,0,12.182,5.462,12.182,12.181c0,6.719-5.462,12.182-12.182,12.182c-6.719,0-12.182-5.462-12.182-12.182
	C776.748,208.326,782.211,202.863,788.93,202.863L788.93,202.863z"/>
<path fill-rule="evenodd" clip-rule="evenodd" fill="#1A1A1A" d="M81.491,165.309c65.195-21.54,47.695-26.28,124.784-26.28
	c9.028,0,32.814,16.159,38.936,24.693c35.494,0,74.203,2.906,84.673,21.704h-16.139c-0.578,0-1.031,0.474-1.031,1.031
	c0,0.577,0.453,1.031,1.031,1.031h17.128c0.247,0.577,0.474,1.175,0.68,1.772c0.062,0.206,0.124,0.392,0.165,0.598
	c0.062,0.186,0.104,0.351,0.145,0.536c0.062,0.228,0.124,0.474,0.185,0.722c0.021,0.124,0.062,0.268,0.083,0.412
	c0.062,0.289,0.124,0.577,0.165,0.887c0.021,0.082,0.042,0.164,0.042,0.247c0.062,0.35,0.103,0.722,0.144,1.072l0.021,0.145
	c0.042,0.391,0.062,0.783,0.083,1.195v0.041c0.021,0.433,0.041,0.866,0.041,1.319c0,5.462-5.483,7.297-8.863,7.297
	c-4.679,0-6.452,5.915-10.224,5.915h-8.245h-0.268c0.185-1.237,0.268-2.494,0.268-3.792c0-14.696-11.893-26.609-26.589-26.609
	c-13.893,0-25.291,10.656-26.507,24.218h-88.754c-0.577,0-1.03,0.454-1.03,1.031c0,0.578,0.453,1.031,1.03,1.031h88.651
	c0,0.103,0,0.227,0,0.33c0,1.298,0.083,2.556,0.268,3.792h-0.268h-98.297h-0.269c0.186-1.237,0.269-2.494,0.269-3.792
	c0-7.111-2.803-13.583-7.338-18.365h68.04c0.577,0,1.03-0.454,1.03-1.031c0-0.557-0.453-1.031-1.03-1.031h-70.246
	c-4.617-3.854-10.574-6.183-17.066-6.183c-14.696,0-26.589,11.914-26.589,26.609c0,1.195,0.062,2.371,0.228,3.525h-0.021h-0.041
	l-0.062-0.021h-0.103c-8.203-1.319-29-6.74-29-10.719c0-7.853-3.627-8.718-4.266-11.15h28.402c0.557,0,1.031-0.454,1.031-1.031
	c0-0.557-0.474-1.031-1.031-1.031H67.248v-3.339v-0.268v-0.186v-0.062v-0.268v-0.124v-0.124v-0.247v-0.062v-0.186v-0.247l0,0v-0.227
	v-0.186v-0.062v-0.289v-0.063l0.021-0.103v-0.226v-0.062v-0.165v-0.062v-0.289l0.021-0.144v-0.144v-0.206v-0.042l0.021-0.165v-0.021
	v-0.186l0.021-0.186v-0.083l0.021-0.268v-0.103l0.021-0.165l0.02-0.186l0,0l0.021-0.185l0.021-0.186v-0.165l0.021-0.041
	c0-0.103,0.021-0.206,0.041-0.309v-0.041c0.021-0.166,0.062-0.33,0.083-0.495v-0.021c0.021-0.104,0.041-0.207,0.062-0.31v-0.021
	c0.021-0.103,0.062-0.206,0.083-0.309v-0.021c0.062-0.268,0.145-0.516,0.227-0.763V173.8c0.268-0.804,0.66-1.505,1.175-2.165v-0.021
	c0.227-0.289,0.494-0.556,0.783-0.845l0,0C71.886,168.874,75.389,167.328,81.491,165.309L81.491,165.309z M179.624,163.722v-18.263
	c-5.565,0.166-11.13,0.433-16.613,0.887c-7.895,0.639-15.397,1.71-23.003,4.019c-0.659,0.206-1.34,0.412-2,0.618l-3.319,12.739
	H179.624z M181.685,145.397v18.325h55.28c-3.709-3.567-8.801-7.235-12.202-9.502c-3.525-2.371-14.305-9.007-18.489-9.007
	C198.153,145.212,189.909,145.191,181.685,145.397L181.685,145.397z M132.567,163.722l3.112-11.956
	c-5.585,1.938-11.088,4.247-16.53,6.411c-8.41,3.339-7.544,5.545,4.823,5.545H132.567z M278.705,183.364
	c12.409,0,22.467,10.08,22.467,22.487c0,12.429-10.059,22.488-22.467,22.488c-12.429,0-22.488-10.059-22.488-22.488
	C256.217,193.444,266.275,183.364,278.705,183.364L278.705,183.364z M278.705,193.67c6.719,0,12.161,5.462,12.161,12.182
	c0,6.74-5.441,12.182-12.161,12.182c-6.74,0-12.181-5.442-12.181-12.182C266.523,199.132,271.965,193.67,278.705,193.67
	L278.705,193.67z M127.187,183.364c12.429,0,22.487,10.08,22.487,22.487c0,12.429-10.059,22.488-22.487,22.488
	c-12.408,0-22.466-10.059-22.466-22.488C104.721,193.444,114.779,183.364,127.187,183.364L127.187,183.364z M127.187,193.67
	c6.74,0,12.182,5.462,12.182,12.182c0,6.74-5.442,12.182-12.182,12.182c-6.719,0-12.161-5.442-12.161-12.182
	C115.026,199.132,120.468,193.67,127.187,193.67L127.187,193.67z"/>
<path fill-rule="evenodd" clip-rule="evenodd" fill="#1A1A1A" d="M145.779,416.917h98.813c-0.164-1.196-0.268-2.433-0.268-3.689
	c0-0.145,0.021-0.289,0.021-0.433H155.59c-0.578,0-1.031-0.453-1.031-1.031c0-0.557,0.453-1.03,1.031-1.03h88.858
	c1.257-13.522,12.635-24.116,26.486-24.116c14.696,0,26.61,11.914,26.61,26.61c0,1.257-0.083,2.494-0.247,3.689h7.028
	c13.377,0,22.405-10.553,19.004-21.705h-18.983c-0.556,0-1.031-0.453-1.031-1.031c0-0.556,0.475-1.03,1.031-1.03h18.2
	c-4.493-10.121-19.643-20.221-51.488-22.859c-15.83-22.363-46.232-35.184-87.271-35.184c-51.509,0-94.463,32.855-105.306,57.013
	h13.851c0.578,0,1.031,0.474,1.031,1.03c0,0.577-0.453,1.03-1.031,1.03H77.616c-1.175,3.112-1.793,6.04-1.793,8.699
	c0,8.781,3.236,12.594,17.21,13.686c-0.124-1.092-0.206-2.205-0.206-3.338c0-14.696,11.914-26.61,26.61-26.61
	c6.102,0,11.728,2.062,16.201,5.504h72.801c0.557,0,1.031,0.474,1.031,1.03c0,0.577-0.474,1.03-1.031,1.03h-70.41
	c4.947,4.844,8.019,11.584,8.019,19.046C146.047,414.484,145.944,415.721,145.779,416.917L145.779,416.917z M217.796,370.292
	v-25.435c-11.336-2.576-23.064-3.566-34.009-3.566c-7.605,0-15.253,0.783-22.755,2.247l7.173,26.753H217.796z M219.858,345.353
	v24.94h43.409C252.383,357.122,236.636,349.454,219.858,345.353L219.858,345.353z M166.061,370.292l-7.049-26.341
	c-8.471,1.813-16.778,4.514-24.714,7.997c-14.057,6.163-0.041,18.344,12.759,18.344H166.061z M270.934,390.74
	c12.429,0,22.488,10.059,22.488,22.488c0,12.408-10.059,22.487-22.488,22.487c-12.409,0-22.488-10.079-22.488-22.487
	C248.446,400.799,258.525,390.74,270.934,390.74L270.934,390.74z M270.934,401.045c6.719,0,12.181,5.462,12.181,12.182
	c0,6.719-5.462,12.181-12.181,12.181s-12.181-5.462-12.181-12.181C258.753,406.507,264.215,401.045,270.934,401.045L270.934,401.045
	z M119.437,390.74c12.408,0,22.487,10.059,22.487,22.488c0,12.408-10.079,22.487-22.487,22.487s-22.488-10.079-22.488-22.487
	C96.949,400.799,107.029,390.74,119.437,390.74L119.437,390.74z M119.437,401.045c6.72,0,12.182,5.462,12.182,12.182
	c0,6.719-5.462,12.181-12.182,12.181s-12.182-5.462-12.182-12.181C107.255,406.507,112.717,401.045,119.437,401.045L119.437,401.045
	z"/>
<path fill-rule="evenodd" clip-rule="evenodd" fill="#1A1A1A" d="M73.06,585.624c0.928-3.503,26.507-9.502,42.214-9.502
	c21.147-22.734,22.92-26.383,107.325-26.383c8.925,3.772,27.146,16.942,37.513,28.135c24.281,0,72.864,4.37,72.864,23.993
	c0,0.205,0,0.432-0.021,0.618H316.96c-0.578,0-1.031,0.474-1.031,1.03c0,0.577,0.453,1.03,1.031,1.03h15.83
	c-0.289,2.041-0.907,3.854-1.772,5.483h0.659c1.134,0,2.062,0.928,2.062,2.061v5.359c0,1.134-0.928,2.061-2.062,2.061h-13.15
	c-4.143,1.382-8.677,1.999-12.821,1.999h-1.896c0.124-1.05,0.206-2.102,0.206-3.174c0-14.696-11.914-26.608-26.609-26.608
	c-13.646,0-24.899,10.264-26.424,23.517h-88.363c-0.556,0-1.031,0.455-1.031,1.031c0,0.556,0.475,1.03,1.031,1.03h88.198
	c-0.021,0.33-0.021,0.681-0.021,1.03c0,1.072,0.062,2.124,0.186,3.174h-98.669c0.125-1.05,0.186-2.102,0.186-3.174
	c0-5.05-1.402-9.769-3.833-13.789h70.945c0.578,0,1.031-0.453,1.031-1.03c0-0.557-0.453-1.03-1.031-1.03h-72.327
	c-4.843-6.534-12.614-10.759-21.395-10.759c-14.675,0-26.589,11.912-26.589,26.608c0,0.681,0.021,1.381,0.083,2.062
	c-8.389-1.299-18.613-3.648-24.425-6.369h-6.76c-1.134,0-2.062-0.927-2.062-2.062v-5.358c0-1.133,0.928-2.062,2.062-2.062h2.309
	h16.984c0.556,0,1.031-0.453,1.031-1.03c0-0.557-0.475-1.03-1.031-1.03h-16.84C71.02,597.044,71.783,590.345,73.06,585.624
	L73.06,585.624z M163.67,577.874v-20.303c-1.174,0.104-2.37,0.228-3.545,0.372c-10.595,1.236-25.6,19.931-3.628,19.931H163.67z
	 M165.731,557.366v20.508h53.013v-21.951c-11.212,0-22.446,0.082-33.659,0.434C178.675,556.541,172.162,556.81,165.731,557.366
	L165.731,557.366z M220.806,555.923v21.951h30.608c-2.762-2.618-5.668-5.111-8.595-7.481c-4.081-3.298-8.347-6.451-12.738-9.337
	c-2.7-1.772-5.792-3.73-8.802-5.133H220.806z M277.406,595.848c12.408,0,22.488,10.059,22.488,22.487
	c0,12.408-10.08,22.468-22.488,22.468c-12.429,0-22.487-10.06-22.487-22.468C254.919,605.906,264.977,595.848,277.406,595.848
	L277.406,595.848z M277.406,606.154c6.719,0,12.182,5.441,12.182,12.181c0,6.72-5.462,12.161-12.182,12.161
	c-6.74,0-12.182-5.441-12.182-12.161C265.225,611.596,270.666,606.154,277.406,606.154L277.406,606.154z M125.889,595.848
	c12.429,0,22.487,10.059,22.487,22.487c0,12.408-10.058,22.468-22.487,22.468c-12.409,0-22.467-10.06-22.467-22.468
	C103.421,605.906,113.48,595.848,125.889,595.848L125.889,595.848z M125.909,606.154c6.719,0,12.161,5.441,12.161,12.181
	c0,6.72-5.441,12.161-12.161,12.161c-6.74,0-12.182-5.441-12.182-12.161C113.728,611.596,119.169,606.154,125.909,606.154
	L125.909,606.154z"/>
<path fill-rule="evenodd" clip-rule="evenodd" fill="#1A1A1A" d="M396.192,371.406c2.37-5.132,24.198-4.225,41.409-4.225
	c3.69-13.79,21.808-33.68,31.269-33.68c52.581,0,38.791,0,91.392,0c13.79,0,28.691,19.396,37.019,33.68c15.397,0,30.609,0,44.749,0
	c16.942,0,17.149,2.659,17.149,29.495H646.11c-0.557,0-1.03,0.474-1.03,1.031c0,0.577,0.474,1.031,1.03,1.031h13.872
	c1.237,1.422,3.525,2.556,3.525,6.925c0,10.903-1.134,13.769-13.46,13.769h-5.482c0.392-1.814,0.598-3.71,0.598-5.648
	c0-1.154-0.082-2.288-0.227-3.401h-4.143c0.165,1.072,0.248,2.185,0.248,3.298c0,12.429-10.059,22.488-22.488,22.488
	c-12.408,0-22.487-10.059-22.487-22.488c0-1.113,0.082-2.227,0.247-3.298h-4.143c-0.124,0.949-0.207,1.896-0.207,2.866h-93.104
	c-0.557,0-1.03,0.474-1.03,1.03c0,0.578,0.474,1.031,1.03,1.031h93.124c0.083,1.423,0.289,2.803,0.578,4.123H483.607
	c0.392-1.814,0.598-3.71,0.598-5.648c0-1.154-0.062-2.288-0.206-3.401h-4.164c0.165,1.072,0.247,2.185,0.247,3.298
	c0,12.429-10.059,22.488-22.488,22.488c-12.408,0-22.487-10.059-22.487-22.488c0-1.113,0.082-2.227,0.248-3.298h-4.144
	c-0.144,1.113-0.227,2.247-0.227,3.401c0,1.607,0.144,3.174,0.433,4.7c-19.086-1.917-41.45-6.225-41.45-8.183v-11.563h29.722
	c0.577,0,1.031-0.454,1.031-1.031c0-0.557-0.454-1.031-1.031-1.031h-29.722v-15.191
	C389.967,373.405,393.513,378.229,396.192,371.406L396.192,371.406z M491.542,367.181v-27.496H468.87
	c-1.711,0-5.256,2.473-6.555,3.462c-3.751,2.865-7.213,6.555-10.141,10.244c-3.586,4.535-9.915,13.79-3.854,13.79H491.542z
	 M493.604,339.685v27.496h61.093v-27.414c-0.433-0.042-0.845-0.083-1.257-0.083H493.604z M556.758,340.241v26.94h19.313
	c6.411,0,6.06-2.783-0.845-11.44C571.351,350.897,563.807,342.467,556.758,340.241L556.758,340.241z M630.28,410.382h-23.456
	c-0.288,1.051-0.453,2.165-0.453,3.298c0,6.74,5.462,12.182,12.181,12.182s12.182-5.442,12.182-12.182
	C630.734,412.547,630.569,411.434,630.28,410.382L630.28,410.382z M469.323,410.382h-23.457c-0.288,1.051-0.453,2.165-0.453,3.298
	c0,6.74,5.462,12.182,12.181,12.182c6.741,0,12.182-5.442,12.182-12.182C469.776,412.547,469.611,411.434,469.323,410.382
	L469.323,410.382z M569.455,398.737h-73.481c-0.556,0-1.031-0.454-1.031-1.031c0-0.557,0.475-1.031,1.031-1.031h73.481
	c0.557,0,1.03,0.474,1.03,1.031C570.485,398.284,570.012,398.737,569.455,398.737L569.455,398.737z"/>
<path fill-rule="evenodd" clip-rule="evenodd" fill="#1A1A1A" d="M756.301,412.794h7.627c-1.608-3.421-2.494-7.235-2.494-11.254
	c0-14.697,11.914-26.61,26.61-26.61c10.759,0,20.034,6.39,24.218,15.603h71.586c0.576,0,1.031,0.454,1.031,1.031
	c0,0.557-0.455,1.03-1.031,1.03h-70.74c0.989,2.783,1.545,5.813,1.545,8.946c0,4.019-0.906,7.833-2.493,11.254h103.265
	c-0.617-1.319-1.112-2.7-1.525-4.123h-92.773c-0.557,0-1.031-0.474-1.031-1.031c0-0.577,0.475-1.03,1.031-1.03h92.3
	c-0.329-1.649-0.494-3.339-0.494-5.07c0-14.697,11.914-26.61,26.61-26.61c14.695,0,26.608,11.913,26.608,26.61
	c0,4.019-0.885,7.833-2.493,11.254h9.791c17.437,0,25.702,0.021,25.702-8.204v-11.996h-22.651c-0.578,0-1.031-0.474-1.031-1.03
	c0-0.577,0.453-1.031,1.031-1.031h22.651v-2.308c0-5.813-48.417-19.623-64.824-19.623c-11.109-7.791-35.308-20.426-45.14-22.796
	c-3.071-0.68-12.182,5.091-8.533,7.317c3.256,2,24.156,13.687,28.361,16.696c-9.439,1.01-81.293,0.948-79.706-12.037
	c-17.993-2.556-73.831,5.998-84.178,9.028c-4.433,1.298-6.822,10.553-6.822,14.408c0,3.71-1.896,6.328-3.236,9.316h17.787
	c0.578,0,1.03,0.454,1.03,1.031c0,0.557-0.452,1.03-1.03,1.03h-18.592c-0.308,1.031-0.494,2.124-0.494,3.359
	C733.772,399.026,738.802,412.794,756.301,412.794L756.301,412.794z M939.541,379.053c12.428,0,22.487,10.079,22.487,22.488
	c0,12.408-10.06,22.487-22.487,22.487c-12.41,0-22.488-10.079-22.488-22.487C917.053,389.132,927.131,379.053,939.541,379.053
	L939.541,379.053z M939.541,389.358c6.719,0,12.181,5.463,12.181,12.182s-5.462,12.181-12.181,12.181
	c-6.72,0-12.182-5.462-12.182-12.181S932.821,389.358,939.541,389.358L939.541,389.358z M788.044,379.053
	c12.407,0,22.487,10.079,22.487,22.488c0,12.408-10.08,22.487-22.487,22.487c-12.43,0-22.487-10.079-22.487-22.487
	C765.557,389.132,775.614,379.053,788.044,379.053L788.044,379.053z M788.044,389.358c6.719,0,12.182,5.463,12.182,12.182
	s-5.463,12.181-12.182,12.181c-6.72,0-12.183-5.462-12.183-12.181S781.324,389.358,788.044,389.358L788.044,389.358z
	 M884.672,351.289c1.257,0.742,2.556,1.463,3.813,2.185c3.01,1.731,6.02,3.442,9.008,5.194c2.845,1.628,5.668,3.257,8.472,4.947
	c1.896,1.134,3.958,2.33,5.75,3.607c0.536,0.392,0.929,0.865,1.176,1.381h14.86c9.027,0-34.174-19.581-36.545-20.468
	C887.104,349.269,886.485,349.804,884.672,351.289L884.672,351.289z"/>
<path fill-rule="evenodd" clip-rule="evenodd" fill="#1A1A1A" d="M659.838,621.509h-27.373c0.124-1.05,0.186-2.102,0.186-3.174
	c0-15.829-12.841-28.67-28.671-28.67c-14.82,0-27.002,11.233-28.506,25.661h-93.331c-0.577,0-1.031,0.453-1.031,1.031
	c0,0.556,0.454,1.03,1.031,1.03h93.186c0,0.308-0.021,0.618-0.021,0.947c0,1.072,0.062,2.124,0.186,3.174H471.693
	c0.123-1.05,0.185-2.102,0.185-3.174c0-4.514-1.051-8.78-2.886-12.572h70.266c0.557,0,1.03-0.454,1.03-1.031s-0.474-1.03-1.03-1.03
	h-71.399c-4.988-8.41-14.161-14.036-24.652-14.036c-15.83,0-28.671,12.841-28.671,28.67c0,1.072,0.062,2.124,0.186,3.174h-18.097
	h-0.701c-1.628,0-2.968-1.339-2.968-2.987v-9.791c0-1.628,1.34-2.968,2.968-2.968h1.628h11.337c0.577,0,1.03-0.454,1.03-1.031
	s-0.454-1.03-1.03-1.03H397.8c3.792-30.897,17.313-71.462,47.16-71.462c103.513,0,112.933,5.359,151.889,37.391
	c36.73,0,56.023,7.915,61.403,34.071h-13.893c-0.556,0-1.03,0.453-1.03,1.03s0.474,1.031,1.03,1.031h14.284h1.896
	c1.629,0,2.969,1.34,2.969,2.968v9.791c0,1.648-1.34,2.987-2.969,2.987H659.838z M449.844,569.63l7.359-31.206h-2.433
	c-15.912,0-26.197,14.551-32.587,31.206H449.844z M459.326,538.424l-7.379,31.206h51.221v-30.072
	c-4.431-0.247-8.884-0.434-13.294-0.578C476.537,538.568,470.972,538.445,459.326,538.424L459.326,538.424z M505.229,539.66v29.97
	h50.54v-20.529c-10.78-4.598-22.096-6.699-33.886-8.038C516.359,540.444,510.794,539.99,505.229,539.66L505.229,539.66z
	 M557.83,550.008v19.622h29.269c-8.101-6.597-16.614-13.15-25.704-17.892C560.201,551.121,559.026,550.543,557.83,550.008
	L557.83,550.008z M603.98,595.848c12.429,0,22.487,10.059,22.487,22.487c0,12.408-10.059,22.468-22.487,22.468
	c-12.409,0-22.488-10.06-22.488-22.468C581.492,605.906,591.571,595.848,603.98,595.848L603.98,595.848z M603.98,606.154
	c6.74,0,12.181,5.441,12.181,12.181c0,6.72-5.441,12.161-12.181,12.161c-6.72,0-12.182-5.441-12.182-12.161
	C591.798,611.596,597.26,606.154,603.98,606.154L603.98,606.154z M443.208,595.848c12.429,0,22.488,10.059,22.488,22.487
	c0,12.408-10.059,22.468-22.488,22.468c-12.408,0-22.487-10.06-22.487-22.468C420.72,605.906,430.799,595.848,443.208,595.848
	L443.208,595.848z M443.208,606.154c6.719,0,12.182,5.441,12.182,12.181c0,6.72-5.462,12.161-12.182,12.161
	s-12.181-5.441-12.181-12.161C431.026,611.596,436.488,606.154,443.208,606.154L443.208,606.154z"/>
<path fill-rule="evenodd" clip-rule="evenodd" fill="#1A1A1A" d="M934.614,566.229c-32.484-28.814-36.318-33.989-112.417-33.989
	c-8.101,0-16.489,22.674-16.489,33.989c-21.932,0-43.842,0-65.772,0c-8.554,0-8.946-0.103-8.946,7.234v23.147h13.688
	c0.576,0,1.03,0.475,1.03,1.03c0,0.577-0.454,1.031-1.03,1.031h-13.688v19.396h18.387c0-14.695,11.913-26.609,26.609-26.609
	c5.896,0,11.337,1.916,15.748,5.152h93.659c0.558,0,1.031,0.475,1.031,1.03c0,0.577-0.474,1.031-1.031,1.031h-91.186
	c5.152,4.864,8.388,11.748,8.388,19.396h121.734c0-1.401,0.124-2.782,0.33-4.121l0,0H819.126c-0.557,0-1.031-0.454-1.031-1.031
	c0-0.557,0.475-1.031,1.031-1.031h105.533c0.123,0,0.268,0.021,0.392,0.082c2.74-11.748,13.294-20.508,25.888-20.508
	c14.654,0,26.548,11.852,26.609,26.506c16.8-0.557,20.263-3.751,20.88-19.292H986.02c-0.577,0-1.03-0.454-1.03-1.031
	c0-0.556,0.453-1.03,1.03-1.03h12.471c0.062-1.834,0.062-3.813,0.062-5.978C998.552,570.289,977.156,566.229,934.614,566.229
	L934.614,566.229z M950.938,595.58c12.429,0,22.488,10.079,22.488,22.487c0,12.409-10.06,22.487-22.488,22.487
	c-12.409,0-22.487-10.078-22.487-22.487C928.451,605.659,938.529,595.58,950.938,595.58L950.938,595.58z M950.938,605.887
	c6.72,0,12.182,5.461,12.182,12.181s-5.462,12.182-12.182,12.182s-12.181-5.462-12.181-12.182S944.219,605.887,950.938,605.887
	L950.938,605.887z M775.985,595.58c12.43,0,22.487,10.079,22.487,22.487c0,12.409-10.058,22.487-22.487,22.487
	c-12.409,0-22.487-10.078-22.487-22.487C753.498,605.659,763.576,595.58,775.985,595.58L775.985,595.58z M775.985,605.887
	c6.72,0,12.183,5.461,12.183,12.181s-5.463,12.182-12.183,12.182s-12.182-5.462-12.182-12.182S769.266,605.887,775.985,605.887
	L775.985,605.887z M841.51,566.229v-27.66c-6.327-0.104-12.676-0.145-19.004-0.145c-1.051,0.577-2.7,2.968-3.235,3.854
	c-1.876,2.987-3.36,6.472-4.493,9.811c-1.443,4.163-2.886,9.708-2.886,14.14H841.51z M843.571,538.609v27.619h48.995l5.339-19.932
	c-7.359-3.277-15.088-4.844-23.169-5.833c-7.275-0.906-14.654-1.319-21.972-1.587C849.693,538.753,846.643,538.671,843.571,538.609
	L843.571,538.609z M899.801,547.163l-5.112,19.065h30.65c-7.297-6.533-15.212-13.501-23.395-17.953
	C901.223,547.885,900.522,547.514,899.801,547.163L899.801,547.163z"/>
<path fill-rule="evenodd" clip-rule="evenodd" fill="#1A1A1A" d="M302.078,817.857c12.429,0,22.488,10.08,22.488,22.488
	s-10.059,22.487-22.488,22.487c-12.408,0-22.466-10.079-22.466-22.487S289.67,817.857,302.078,817.857L302.078,817.857z
	 M129.311,817.857c12.428,0,22.487,10.08,22.487,22.488s-10.059,22.487-22.487,22.487c-12.409,0-22.488-10.079-22.488-22.487
	S116.902,817.857,129.311,817.857L129.311,817.857z M87.386,845.396h15.809c-0.33-1.628-0.495-3.319-0.495-5.05
	c0-14.695,11.914-26.609,26.61-26.609c6.905,0,13.191,2.638,17.932,6.945h92.671c0.557,0,1.031,0.475,1.031,1.03
	c0,0.577-0.474,1.031-1.031,1.031h-90.651c4.143,4.7,6.658,10.862,6.658,17.603c0,1.73-0.166,3.422-0.475,5.05h120.518
	c-0.268-1.34-0.413-2.721-0.475-4.123H173.213c-0.557,0-1.031-0.453-1.031-1.03c0-0.557,0.474-1.031,1.031-1.031H275.51
	c0.598-14.159,12.264-25.475,26.568-25.475c14.697,0,26.61,11.914,26.61,26.609c0,1.73-0.165,3.4-0.474,5.028
	c16.139-0.226,15.974-2.987,15.974-14.592c0-2.783-0.186-5.484-0.557-8.039h-8.945c-0.577,0-1.031-0.454-1.031-1.031
	c0-0.556,0.454-1.03,1.031-1.03h8.574c-3.05-15.335-14.057-26.259-38.441-32.36c-12.449-12.594-28.671-32.546-56.662-32.546
	c-39.204,0-72.285,0-108.273,0c-34.793,0-48.252-1.877-48.252,20.199v44.707h10.265c0.577,0,1.031,0.475,1.031,1.03
	c0,0.577-0.454,1.031-1.031,1.031H91.632c0,3.051-4.246,6.101-4.246,9.151C87.386,836.409,87.386,840.901,87.386,845.396
	L87.386,845.396z M138.502,788.321v-26.403c-2.411,0-4.802,0-7.213,0c-3.999,0.021-8.039,0.062-12.017,0.391
	c-3.298,0.269-9.069,0.887-11.543,3.401c-2.329,2.329-2.555,7.215-2.555,10.265v12.347H138.502z M140.564,761.938v26.383h54.044
	v-26.363h-47.366C145.017,761.958,142.79,761.938,140.564,761.938L140.564,761.938z M196.669,761.958v26.363h54.065v-26.301
	c-0.865-0.041-1.71-0.063-2.577-0.063H196.669z M252.796,762.164v26.157h43.388c-5.503-5.688-10.945-11.275-17.479-15.975
	C270.749,766.597,262.318,763.03,252.796,762.164L252.796,762.164z M129.311,828.164c6.719,0,12.181,5.462,12.181,12.182
	c0,6.719-5.462,12.182-12.181,12.182c-6.72,0-12.182-5.463-12.182-12.182C117.128,833.626,122.59,828.164,129.311,828.164
	L129.311,828.164z M302.078,828.164c6.741,0,12.182,5.462,12.182,12.182c0,6.719-5.441,12.182-12.182,12.182
	c-6.719,0-12.161-5.463-12.161-12.182C289.917,833.626,295.359,828.164,302.078,828.164L302.078,828.164z"/>
<path fill-rule="evenodd" clip-rule="evenodd" fill="#1A1A1A" d="M412.146,844.881h1.072c-0.248-1.465-0.371-2.989-0.371-4.535
	c0-14.695,11.893-26.609,26.589-26.609c6.699,0,12.82,2.472,17.5,6.554h95c0.577,0,1.031,0.475,1.031,1.031
	c0,0.577-0.454,1.03-1.031,1.03h-92.897c4.349,4.74,7.008,11.049,7.008,17.994c0,1.546-0.124,3.07-0.392,4.535H601.96
	c-0.227-1.341-0.351-2.722-0.392-4.123H487.193c-0.577,0-1.03-0.453-1.03-1.031c0-0.557,0.454-1.03,1.03-1.03H601.63
	c0.845-13.913,12.408-24.96,26.547-24.96c14.697,0,26.61,11.914,26.61,26.609c0,1.629-0.145,3.216-0.433,4.781
	c8.822,0.021,16.387-2.267,11.749-22.775h-8.224c-0.557,0-1.031-0.453-1.031-1.03c0-0.557,0.474-1.031,1.031-1.031h7.729
	c-5.462-21.229-18.881-32.587-38.627-35.988c-6.019-24.446-28.588-51.529-63.587-51.529c-50.416,0-100.833,0-151.25,0
	c-19.21,0-19.189-0.434-19.189,15.047v72.471h13.913c0.577,0,1.031,0.475,1.031,1.031c0,0.577-0.454,1.03-1.031,1.03h-13.913v4.658
	C392.956,844.344,392.812,844.881,412.146,844.881L412.146,844.881z M628.178,817.857c12.429,0,22.488,10.08,22.488,22.488
	s-10.059,22.487-22.488,22.487c-12.408,0-22.487-10.079-22.487-22.487S615.77,817.857,628.178,817.857L628.178,817.857z
	 M628.178,828.164c6.72,0,12.182,5.462,12.182,12.182c0,6.719-5.462,12.182-12.182,12.182c-6.719,0-12.181-5.463-12.181-12.182
	C615.997,833.626,621.458,828.164,628.178,828.164L628.178,828.164z M439.436,817.857c12.429,0,22.488,10.08,22.488,22.488
	s-10.059,22.487-22.488,22.487c-12.408,0-22.467-10.079-22.467-22.487S427.027,817.857,439.436,817.857L439.436,817.857z
	 M439.436,828.164c6.74,0,12.182,5.462,12.182,12.182c0,6.719-5.441,12.182-12.182,12.182c-6.719,0-12.161-5.463-12.161-12.182
	C427.275,833.626,432.716,828.164,439.436,828.164L439.436,828.164z M604.186,784.302v-28.136c-0.742-0.762-1.526-1.505-2.309-2.225
	c-10.718-9.791-23.931-14.985-38.482-14.985c-11.666,0-11.357-0.31-11.357,7.977c0,8.863,0,17.727,0,26.589
	c0,9.256,1.278,10.78,11.46,10.78H604.186z M606.248,758.352v25.95h14.346C617.976,774.821,612.884,765.731,606.248,758.352
	L606.248,758.352z M528.829,784.302H412.805c-0.557,0-1.03-0.453-1.03-1.03c0-0.557,0.474-1.031,1.03-1.031h116.024
	c0.557,0,1.031,0.475,1.031,1.031C529.86,783.849,529.386,784.302,528.829,784.302L528.829,784.302z"/>
<path fill-rule="evenodd" clip-rule="evenodd" fill="#1A1A1A" d="M768.998,742.604c36.421,0,55.116,0,91.517,0
	c29.187,0,40.131,11.15,60.6,32.03c58.989,0,77.438,2.433,77.438,32.442c0,0.31,0,0.619,0,0.949h-11.13
	c-0.557,0-1.031,0.453-1.031,1.03c0,0.557,0.475,1.03,1.031,1.03h11.089c-0.495,14.676-4.782,21.005-12.656,23.724
	c0.124-1.091,0.206-2.185,0.206-3.317c0-14.676-11.912-26.59-26.609-26.59c-14.428,0-26.156,11.461-26.589,25.765H821.641
	c-0.576,0-1.031,0.475-1.031,1.031c0,0.577,0.455,1.03,1.031,1.03h111.222c0.062,1.401,0.247,2.783,0.516,4.123H810.551
	c0.372-1.731,0.558-3.525,0.558-5.359c0-8.204-3.731-15.541-9.564-20.406h89.126c0.557,0,1.031-0.474,1.031-1.03
	c0-0.577-0.475-1.03-1.031-1.03h-91.949c-4.123-2.618-8.987-4.123-14.223-4.123c-14.696,0-26.61,11.914-26.61,26.59
	c0,1.834,0.187,3.628,0.536,5.359h-0.474c-4.37,0-23.931,2.968-26.651-25.766h21.21c0.577,0,1.03-0.474,1.03-1.03
	c0-0.577-0.453-1.03-1.03-1.03h-21.374c-0.103-1.587-0.146-3.258-0.146-5.01c0-13.748,5.979-14.757,6.865-21.188
	C743.419,742.378,750.365,742.604,768.998,742.604L768.998,742.604z M959.451,808.026c12.409,0,22.488,10.059,22.488,22.467
	c0,12.429-10.079,22.487-22.488,22.487c-12.429,0-22.487-10.059-22.487-22.487C936.964,818.085,947.022,808.026,959.451,808.026
	L959.451,808.026z M959.451,818.332c6.72,0,12.181,5.441,12.181,12.161c0,6.74-5.461,12.182-12.181,12.182
	c-6.74,0-12.182-5.441-12.182-12.182C947.27,823.773,952.711,818.332,959.451,818.332L959.451,818.332z M784.498,808.026
	c12.408,0,22.487,10.059,22.487,22.467c0,12.429-10.079,22.487-22.487,22.487c-12.429,0-22.487-10.059-22.487-22.487
	C762.011,818.085,772.069,808.026,784.498,808.026L784.498,808.026z M784.498,818.332c6.72,0,12.182,5.441,12.182,12.161
	c0,6.74-5.462,12.182-12.182,12.182c-6.74,0-12.182-5.441-12.182-12.182C772.316,823.773,777.758,818.332,784.498,818.332
	L784.498,818.332z M776.624,748.788c-3.792,0-10.636-0.269-14.057,1.484c-2.804,1.422-4.391,4.72-5.482,7.502
	c-1.979,5.009-3.278,11.049-4.246,16.86h30.69v-25.847H776.624z M785.591,774.635h71.007v-25.847h-71.007V774.635z M858.659,774.635
	h53.817c-7.152-7.316-15.17-15.19-23.806-19.808c-8.843-4.74-18.221-6.039-28.156-6.039h-1.855V774.635z"/>
<path fill-rule="evenodd" clip-rule="evenodd" fill="#1A1A1A" d="M1287.797,594.528c12.409,0,22.488,10.059,22.488,22.488
	c0,12.408-10.079,22.467-22.488,22.467c-12.428,0-22.486-10.059-22.486-22.467C1265.311,604.587,1275.369,594.528,1287.797,594.528
	L1287.797,594.528z M1139.289,622.499h122.477c-0.289-1.34-0.475-2.721-0.536-4.123h-97.866c-0.556,0-1.029-0.453-1.029-1.03
	c0-0.557,0.474-1.029,1.029-1.029h97.824c0.372-14.367,12.141-25.91,26.609-25.91c14.697,0,26.61,11.913,26.61,26.61
	c0,1.813-0.185,3.586-0.536,5.297c12.326-0.783,13.068-4.659,13.131-23.374h-10.08c-0.577,0-1.03-0.453-1.03-1.03
	c0-0.557,0.453-1.031,1.03-1.031h10.08v-1.793c0-17.189-16.799-29.743-68.247-29.743c-27.269-32.03-41.285-32.03-45.448-32.03
	c-47.51,0-62.495,0-88.59,0c-15.397,0-21.725,0-40.357,32.03c-4.721,0-14.182,4.928-14.182,26.651c0,1.711,0,3.339,0.021,4.885
	h11.398c0.558,0,1.03,0.475,1.03,1.031c0,0.577-0.473,1.03-1.03,1.03h-11.378c0.207,16.222,1.959,22.735,16.984,23.498
	c-0.35-1.753-0.556-3.565-0.556-5.421c0-14.697,11.913-26.61,26.608-26.61c6.659,0,12.738,2.433,17.418,6.472h101.431
	c0.577,0,1.03,0.475,1.03,1.031c0,0.577-0.453,1.03-1.03,1.03h-99.308c4.39,4.762,7.069,11.09,7.069,18.077
	C1139.866,618.892,1139.66,620.727,1139.289,622.499L1139.289,622.499z M1175.979,565.342v-25.847h-43.616
	c-3.399,0-7.42-0.124-10.718,0.722c-3.813,0.989-6.657,3.401-9.296,6.225c-4.905,5.318-9.357,12.43-13.191,18.9H1175.979z
	 M1178.039,539.495v25.847h72.514c-9.131-10.284-24.756-25.847-37.246-25.847H1178.039z M1113.256,594.528
	c12.429,0,22.487,10.059,22.487,22.488c0,12.408-10.059,22.467-22.487,22.467c-12.408,0-22.486-10.059-22.486-22.467
	C1090.77,604.587,1100.848,594.528,1113.256,594.528L1113.256,594.528z M1113.256,604.835c6.721,0,12.183,5.441,12.183,12.182
	c0,6.719-5.462,12.16-12.183,12.16c-6.719,0-12.181-5.441-12.181-12.16C1101.075,610.276,1106.537,604.835,1113.256,604.835
	L1113.256,604.835z M1287.797,604.835c6.721,0,12.183,5.441,12.183,12.182c0,6.719-5.462,12.16-12.183,12.16
	c-6.739,0-12.181-5.441-12.181-12.16C1275.616,610.276,1281.058,604.835,1287.797,604.835L1287.797,604.835z"/>
<path fill-rule="evenodd" clip-rule="evenodd" fill="#1A1A1A" d="M1269.701,793.227c12.429,0,22.487,10.059,22.487,22.488
	c0,12.407-10.059,22.466-22.487,22.466c-12.409,0-22.488-10.059-22.488-22.466C1247.213,803.285,1257.292,793.227,1269.701,793.227
	L1269.701,793.227z M1070.178,774.965c0-6.822,27.518-1.628,38.875-4.658c23.126-4.74,44.418-12.903,68.018-12.903
	c34.072,0,45.141,15.706,65.525,20.509c8.925,2.102,84.406,1.731,84.406,21.25c0,3.382,0,6.309-0.021,8.844h-16.777
	c-0.578,0-1.031,0.452-1.031,1.03c0,0.557,0.453,1.03,1.031,1.03h16.777c-0.123,13.954-0.783,13.954-4.555,13.954h-27.436
	c0.846-2.617,1.32-5.4,1.32-8.306c0-14.697-11.913-26.611-26.609-26.611c-14.697,0-26.61,11.914-26.61,26.611
	c0,0.721,0.04,1.422,0.103,2.122h-86.178c-0.557,0-1.03,0.474-1.03,1.031c0,0.577,0.474,1.03,1.03,1.03h86.426
	c0.205,1.423,0.557,2.804,0.989,4.122h-100.956c0.865-2.617,1.339-5.4,1.339-8.306c0-1.938-0.206-3.834-0.599-5.648h62.084
	c0.577,0,1.03-0.474,1.03-1.03c0-0.578-0.453-1.03-1.03-1.03h-62.619c-3.318-10.946-13.46-18.902-25.477-18.902
	c-14.695,0-26.609,11.914-26.609,26.611c0,1.298,0.104,2.576,0.289,3.833c-11.316-2.597-21.705-5.668-21.705-7.338
	c0-0.763,0.021-1.484,0.041-2.144h13.048c0.557,0,1.031-0.474,1.031-1.03c0-0.578-0.475-1.03-1.031-1.03h-12.966
	c0.331-5.401,1.237-7.358,1.237-10.266C1071.538,787.826,1070.178,787.538,1070.178,774.965L1070.178,774.965z M1227.879,779.21
	c-7.276-3.358-14.099-7.44-21.602-10.387c-9.521-3.731-18.983-5.235-29.207-5.235c-10.82,0-21.498,1.874-32.092,4.327l-6.74,11.688
	C1178.822,783.89,1248.119,788.548,1227.879,779.21L1227.879,779.21z M1118.203,793.227c12.408,0,22.488,10.059,22.488,22.488
	c0,12.407-10.08,22.466-22.488,22.466s-22.487-10.059-22.487-22.466C1095.716,803.285,1105.795,793.227,1118.203,793.227
	L1118.203,793.227z M1118.203,803.532c6.72,0,12.183,5.441,12.183,12.183c0,6.719-5.463,12.16-12.183,12.16
	c-6.719,0-12.182-5.441-12.182-12.16C1106.021,808.974,1111.484,803.532,1118.203,803.532L1118.203,803.532z M1269.701,803.532
	c6.739,0,12.181,5.441,12.181,12.183c0,6.719-5.441,12.16-12.181,12.16c-6.72,0-12.183-5.441-12.183-12.16
	C1257.519,808.974,1262.981,803.532,1269.701,803.532L1269.701,803.532z"/>
<path fill-rule="evenodd" clip-rule="evenodd" fill="#1A1A1A" d="M1266.733,190.083c12.407,0,22.487,10.08,22.487,22.487
	c0,12.429-10.08,22.488-22.487,22.488c-12.43,0-22.488-10.059-22.488-22.488C1244.245,200.163,1254.304,190.083,1266.733,190.083
	L1266.733,190.083z M1086.316,220.074h3.381c-0.7-2.37-1.072-4.885-1.072-7.503c0-14.696,11.914-26.61,26.59-26.61
	c7.605,0,14.469,3.195,19.313,8.307h80.613c0.556,0,1.03,0.474,1.03,1.031c0,0.577-0.475,1.031-1.03,1.031h-78.841
	c3.463,4.493,5.523,10.141,5.523,16.242c0,2.618-0.371,5.133-1.071,7.503h100.44c-0.391-1.34-0.68-2.7-0.865-4.122h-82.859
	c-0.557,0-1.03-0.454-1.03-1.03c0-0.578,0.474-1.031,1.03-1.031h82.675c-0.021-0.433-0.021-0.866-0.021-1.32
	c0-14.696,11.914-26.61,26.611-26.61c14.696,0,26.608,11.914,26.608,26.61c0,2.618-0.391,5.133-1.092,7.503h11.584
	c17.046,0,17.046,0,17.046-19.89c0-1.34-0.082-2.618-0.228-3.854h-14.841c-0.576,0-1.03-0.454-1.03-1.031
	c0-0.557,0.454-1.031,1.03-1.031h14.531c-4.679-25.496-40.274-25.022-59.794-29.66c-13.646-3.215-33.803-28.938-78.469-28.938
	c-22.116,0-45.47,0-72.492,0c-6.226,0-23.684,24.383-23.684,32.051c0,18.756-9.605,12.758-9.605,23.683l0.021,2.865h9.027
	c0.557,0,1.031,0.474,1.031,1.031c0,0.577-0.475,1.031-1.031,1.031h-9.027C1076.361,217.909,1076.979,220.074,1086.316,220.074
	L1086.316,220.074z M1188.924,167.72v-25.663c-2.248-0.144-4.516-0.206-6.844-0.206h-36.813v25.868H1188.924z M1190.983,142.223
	v25.497h60.847c-2.206-1.175-4.349-2.515-6.349-3.772c-5.153-3.277-10.182-6.637-15.54-9.605
	C1217.388,147.376,1204.814,143.398,1190.983,142.223L1190.983,142.223z M1143.205,167.72v-25.868h-13.067
	c-2.968,1.567-8.821,9.193-10.573,11.666c-1.834,2.598-7.38,11.151-7.564,14.202H1143.205z M1115.215,190.083
	c12.429,0,22.487,10.08,22.487,22.487c0,12.429-10.059,22.488-22.487,22.488c-12.408,0-22.467-10.059-22.467-22.488
	C1092.748,200.163,1102.807,190.083,1115.215,190.083L1115.215,190.083z M1115.215,200.39c6.74,0,12.182,5.462,12.182,12.181
	c0,6.741-5.441,12.182-12.182,12.182c-6.72,0-12.161-5.441-12.161-12.182C1103.054,205.852,1108.495,200.39,1115.215,200.39
	L1115.215,200.39z M1266.733,200.39c6.719,0,12.18,5.462,12.18,12.181c0,6.741-5.461,12.182-12.18,12.182
	c-6.741,0-12.183-5.441-12.183-12.182C1254.551,205.852,1259.992,200.39,1266.733,200.39L1266.733,200.39z"/>
<path fill-rule="evenodd" clip-rule="evenodd" fill="#1A1A1A" d="M1275.926,392.966c12.428,0,22.487,10.079,22.487,22.488
	c0,12.408-10.06,22.487-22.487,22.487c-12.409,0-22.488-10.079-22.488-22.487C1253.438,403.045,1263.517,392.966,1275.926,392.966
	L1275.926,392.966z M1063.313,381.67c0-14.037,5.153-14.037,7.73-14.037c16.881-35.803,20.139-35.803,29.495-35.803
	c62.928,0,42.646,0,105.574,0c12.202,0,18.303,0,53.714,35.803c24.673,0,31.247,0.619,51.859,3.669
	c19.686,5.277,22.179,14.305,22.179,23.291v0.433h-20.323c-0.557,0-1.031,0.475-1.031,1.031c0,0.578,0.475,1.031,1.031,1.031h20.323
	c-0.02,20.076-0.475,23.044-12.408,23.044h-19.335c0.269-1.525,0.413-3.091,0.413-4.678c0-14.697-11.914-26.61-26.609-26.61
	c-14.182,0-25.765,11.109-26.569,25.105h-95.228c-0.556,0-1.03,0.454-1.03,1.03c0,0.557,0.475,1.031,1.03,1.031h95.207
	c0.021,1.401,0.164,2.762,0.392,4.122h-108.913c0.268-1.525,0.392-3.091,0.392-4.678c0-7.111-2.782-13.583-7.338-18.366h77.006
	c0.578,0,1.031-0.453,1.031-1.031c0-0.556-0.453-1.031-1.031-1.031h-79.211c-4.617-3.854-10.574-6.183-17.046-6.183
	c-14.696,0-26.61,11.913-26.61,26.61c0,1.587,0.146,3.153,0.412,4.678h-2.122c-19.52,0-22.468-0.02-22.9-23.044h17.212
	c0.576,0,1.03-0.453,1.03-1.031c0-0.556-0.454-1.031-1.03-1.031h-17.253C1063.313,391.193,1063.313,386.782,1063.313,381.67
	L1063.313,381.67z M1195.23,367.634l-5.834-29.619h-50.127v29.619H1195.23z M1191.499,338.015l5.833,29.619h53.756
	c-4.638-4.617-9.338-9.192-14.181-13.583c-3.937-3.545-8.06-7.131-12.388-10.182c-4.205-2.968-8.204-5.297-13.398-5.73
	c-1.648-0.124-3.339-0.124-5.008-0.124H1191.499z M1137.207,367.634v-29.619h-29.021c-1.278,0-2.906-0.042-4.144,0.227
	c-2.246,0.516-4.349,3.504-5.564,5.236c-2.186,3.133-4.081,6.575-5.855,9.935c-2.493,4.659-4.822,9.44-7.11,14.222H1137.207z
	 M1114.617,392.966c12.408,0,22.467,10.079,22.467,22.488c0,12.408-10.059,22.487-22.467,22.487
	c-12.429,0-22.487-10.079-22.487-22.487C1092.13,403.045,1102.188,392.966,1114.617,392.966L1114.617,392.966z M1114.617,403.271
	c6.72,0,12.161,5.462,12.161,12.182c0,6.719-5.441,12.181-12.161,12.181c-6.74,0-12.183-5.462-12.183-12.181
	C1102.435,408.733,1107.877,403.271,1114.617,403.271L1114.617,403.271z M1275.926,403.271c6.719,0,12.181,5.462,12.181,12.182
	c0,6.719-5.462,12.181-12.181,12.181c-6.72,0-12.182-5.462-12.182-12.181C1263.744,408.733,1269.206,403.271,1275.926,403.271
	L1275.926,403.271z"/>
</svg>
