<?xml version="1.0" standalone="no"?>
<!DOCTYPE svg PUBLIC "-//W3C//DTD SVG 20010904//EN"
 "http://www.w3.org/TR/2001/REC-SVG-20010904/DTD/svg10.dtd">
<svg version="1.0" xmlns="http://www.w3.org/2000/svg"
 width="100%" height="100%" viewBox="0 0 288.000000 127.000000"
 preserveAspectRatio="xMidYMid meet">
<metadata>
Created by potrace 1.15, written by Peter Selinger 2001-2017
</metadata>
<g transform="translate(0.000000,127.000000) scale(0.100000,-0.100000)"
fill="#000000">
<path style="fill:white;stroke:#000000;stroke-width:15px;" d="M1035 1050 c-123 -11 -224 -38 -411 -110 -87 -34 -233 -88 -324 -121
-194 -69 -210 -81 -210 -164 l0 -54 148 -3 c194 -4 197 -22 5 -26 -79 -1 -143
-6 -143 -11 0 -5 7 -14 15 -21 8 -7 15 -27 15 -45 0 -18 8 -39 18 -48 20 -18
178 -73 240 -83 l42 -7 0 52 c0 91 69 191 156 227 53 22 171 18 224 -9 43 -21
58 -22 405 -27 230 -3 360 -9 360 -15 0 -6 -121 -11 -337 -13 -186 -1 -338 -4
-338 -6 0 -2 12 -24 26 -50 16 -29 28 -69 31 -106 l6 -60 488 0 c481 0 489 0
489 20 0 19 -8 20 -445 22 -288 2 -445 7 -445 13 0 6 156 11 443 13 l442 2 18
51 c22 62 87 135 142 160 49 23 170 25 219 5 47 -20 104 -73 128 -120 11 -22
23 -69 26 -103 l5 -63 45 0 c35 0 51 6 79 30 20 18 45 30 62 30 16 0 40 9 55
21 24 19 27 27 24 78 l-3 56 -92 3 c-74 2 -93 6 -93 17 0 12 16 15 80 15 44 0
80 4 80 8 0 15 -75 80 -115 100 -124 62 -280 91 -535 99 l-185 6 -60 55 c-67
62 -168 130 -247 167 -51 24 -61 25 -248 23 -107 0 -235 -4 -285 -8z m537 -88
c72 -37 202 -124 214 -143 3 -5 -106 -9 -270 -9 l-276 0 0 95 0 95 129 0 130
0 73 -38z m-352 -62 l0 -90 -226 0 -226 0 6 28 c24 97 26 100 59 111 83 26
168 37 305 39 l82 2 0 -90z m-460 -35 l-12 -57 -88 4 c-94 3 -112 10 -89 33
14 14 191 86 197 80 2 -2 -2 -29 -8 -60z"/>
<path style="fill:black;stroke:#000000;stroke-width:15px;" d="M595 593 c-80 -42 -125 -114 -125 -203 0 -129 93 -220 225 -220 86 0
158 46 199 127 18 37 21 137 5 180 -14 38 -77 102 -116 119 -44 19 -150 17
-188 -3z m181 -117 c28 -28 34 -42 34 -75 0 -53 -22 -97 -60 -116 -59 -30
-118 -14 -157 44 -36 53 -31 96 16 142 34 34 44 39 86 39 40 0 52 -5 81 -34z"/>
<path style="fill:black;stroke:#000000;stroke-width:15px;" d="M2088 581 c-152 -97 -135 -312 31 -396 52 -26 156 -18 210 18 81 54
122 169 91 261 -30 91 -112 146 -218 146 -58 0 -75 -4 -114 -29z m196 -102
c101 -88 10 -242 -118 -199 -52 17 -76 53 -76 112 0 43 4 54 34 84 29 29 41
34 80 34 36 0 52 -6 80 -31z"/>
</g>
</svg>
